<svg width="111" height="28" viewBox="0 0 111 28" fill="none" xmlns="http://www.w3.org/2000/svg">
<path d="M36.3667 23.5231V9.54187H38.4469L38.645 10.6704H38.7441C39.3384 9.89741 40.3484 9.34375 41.7547 9.34375C44.3284 9.34375 46.3891 11.4434 46.3891 14.5514C46.3891 17.6593 44.3302 19.7589 41.7547 19.7589C40.3679 19.7589 39.3985 19.184 38.8838 18.5313H38.7847V23.5213H36.3685L36.3667 23.5231ZM43.9711 14.5531C43.9711 12.7312 42.8019 11.5832 41.3761 11.5832C39.9504 11.5832 38.7812 12.7312 38.7812 14.5531C38.7812 16.3751 39.9504 17.5231 41.3761 17.5231C42.8019 17.5231 43.9711 16.3751 43.9711 14.5531Z" fill="black"/>
<path d="M47.6157 14.5537C47.6157 11.5236 49.7932 9.34619 52.7048 9.34619C55.6163 9.34619 57.7938 11.5236 57.7938 14.5537C57.7938 17.5838 55.6163 19.7613 52.7048 19.7613C49.7932 19.7613 47.6157 17.5626 47.6157 14.5537ZM55.3581 14.5537C55.3581 12.7707 54.1694 11.5838 52.7048 11.5838C51.2401 11.5838 50.032 12.7725 50.032 14.5537C50.032 16.335 51.2401 17.5042 52.7048 17.5042C54.1694 17.5042 55.3581 16.3367 55.3581 14.5537Z" fill="black"/>
<path d="M59.5435 19.5626V5.70166H61.9597V19.5643H59.5435V19.5626Z" fill="black"/>
<path d="M70.9304 9.54199H73.5041L69.1473 21.7207C68.7122 22.9288 68.1178 23.5231 66.5524 23.5231H64.2157V21.2855H66.1969C66.5542 21.2855 66.7505 21.1069 66.8708 20.8097L67.1078 20.157L63.0288 9.54199H65.6025L68.1975 16.4937H68.5937L70.9304 9.54199Z" fill="black"/>
<path d="M73.9661 20.0578H76.4213C76.5204 20.7106 77.1731 21.6021 78.7191 21.6021C80.1642 21.6021 81.1159 20.6911 81.1159 19.3043V17.8981H81.0168C80.4826 18.4729 79.4921 18.9877 78.2238 18.9877C75.6501 18.9877 73.6689 17.0065 73.6689 14.1551C73.6689 11.3037 75.6501 9.34375 78.2238 9.34375C79.5504 9.34375 80.5216 9.87795 81.1353 10.6315H81.2344L81.4325 9.54187H83.5322V19.3043C83.5322 21.9576 81.7491 23.7212 78.7191 23.7212C75.3335 23.7212 74.0263 21.503 73.9661 20.0578ZM81.1159 14.1569C81.1159 12.5932 80.0068 11.5036 78.6006 11.5036C77.1943 11.5036 76.1047 12.5932 76.1047 14.1569C76.1047 15.7206 77.2138 16.8297 78.6006 16.8297C79.9874 16.8297 81.1159 15.74 81.1159 14.1569Z" fill="black"/>
<path d="M85.2114 14.5537C85.2114 11.5236 87.3889 9.34619 90.3005 9.34619C93.212 9.34619 95.3895 11.5236 95.3895 14.5537C95.3895 17.5838 93.212 19.7613 90.3005 19.7613C87.3889 19.7613 85.2114 17.5626 85.2114 14.5537ZM92.9538 14.5537C92.9538 12.7707 91.7651 11.5838 90.3005 11.5838C88.8358 11.5838 87.6277 12.7725 87.6277 14.5537C87.6277 16.335 88.8358 17.5042 90.3005 17.5042C91.7651 17.5042 92.9538 16.3367 92.9538 14.5537Z" fill="black"/>
<path d="M97.0716 19.5626V9.54187H99.15L99.3481 10.4918H99.4472C99.8434 10.0372 100.834 9.34375 102.338 9.34375C104.635 9.34375 106.298 11.0065 106.298 13.5413V19.5608H103.882V13.858C103.882 12.5702 102.971 11.6398 101.724 11.6398C100.477 11.6398 99.4861 12.6109 99.4861 13.858V19.5608H97.0698L97.0716 19.5626Z" fill="black"/>
<path d="M22.3026 18.3936L28.2424 14.9638C28.5573 14.7816 28.7519 14.4437 28.7519 14.0811V7.22144C28.7519 6.85882 28.5573 6.52097 28.2424 6.33877L22.3026 2.90893C21.9877 2.72674 21.5968 2.72851 21.2837 2.90893L15.3438 6.33877C15.029 6.52097 14.8344 6.85882 14.8344 7.22144V19.4797L10.6687 21.8836L6.50301 19.4797V14.6702L10.6687 12.2663L13.4158 13.8529V10.6265L11.1781 9.33347C11.0242 9.24503 10.8474 9.19727 10.6687 9.19727C10.49 9.19727 10.3132 9.24503 10.1593 9.33347L4.2194 12.7633C3.90454 12.9455 3.70996 13.2834 3.70996 13.646V20.5057C3.70996 20.8683 3.90454 21.2061 4.2194 21.3883L10.1593 24.8182C10.4741 24.9986 10.8633 24.9986 11.1781 24.8182L17.118 21.3883C17.4329 21.2061 17.6274 20.8683 17.6274 20.5057V8.24562L17.7017 8.20316L21.7914 5.84172L25.9571 8.24562V13.0552L21.7914 15.4591L19.0478 13.8759V17.1024L21.2819 18.3919C21.5968 18.5723 21.9877 18.5723 22.3008 18.3919L22.3026 18.3936Z" fill="url(#paint0_linear_539_2605)"/>
<defs>
<linearGradient id="paint0_linear_539_2605" x1="3.62859" y1="21.1778" x2="27.6764" y2="7.21967" gradientUnits="userSpaceOnUse">
<stop stop-color="#A726C1"/>
<stop offset="0.88" stop-color="#803BDF"/>
<stop offset="1" stop-color="#7B3FE4"/>
</linearGradient>
</defs>
</svg>
