<svg width="24" height="24" viewBox="0 0 24 24" fill="none" xmlns="http://www.w3.org/2000/svg">
<path fill-rule="evenodd" clip-rule="evenodd" d="M7.66702 6.91702C7.66702 4.52395 9.60698 2.58398 12.0001 2.58398C14.1566 2.58398 15.9452 4.15943 16.2777 6.22217C14.9484 6.40576 13.7622 7.03725 12.8763 7.95939C12.7938 7.62551 12.75 7.27637 12.75 6.91702H11.25C11.25 8.36064 10.5441 9.63937 9.45853 10.4268C8.37299 9.63937 7.66702 8.36064 7.66702 6.91702ZM7.95939 11.1238C7.12375 10.321 6.52678 9.27158 6.28552 8.09258C6.26055 7.97054 6.23939 7.84712 6.22217 7.72243C4.15942 8.05492 2.58398 9.8435 2.58398 12.0001C2.58398 14.3931 4.52395 16.3331 6.91702 16.3331C8.36064 16.3331 9.63937 15.6271 10.4268 14.5416C9.63937 13.456 8.36065 12.7501 6.91704 12.7501L6.91704 12.0001L6.91703 11.2501C7.27638 11.2501 7.62551 11.2063 7.95939 11.1238ZM11.1238 16.0407C10.2379 16.9629 9.05169 17.5943 7.72243 17.7779C8.05492 19.8407 9.8435 21.4161 12.0001 21.4161C14.3931 21.4161 16.3331 19.4762 16.3331 17.0831C16.3331 15.6395 15.6271 14.3607 14.5416 13.5733C13.456 14.3607 12.75 15.6395 12.75 17.0831H11.25C11.25 16.7237 11.2063 16.3746 11.1238 16.0407ZM16.0407 12.8763C16.9628 13.7622 17.5943 14.9484 17.7779 16.2777C19.8407 15.9452 21.4161 14.1566 21.4161 12.0001C21.4161 9.60698 19.4762 7.66702 17.0831 7.66702C15.6395 7.66702 14.3607 8.37299 13.5733 9.45854C14.3604 10.5436 15.6383 11.2494 17.0812 11.2501V12.7501C16.7225 12.7502 16.374 12.7939 16.0407 12.8763ZM12.0001 1.08398C14.9821 1.08398 17.4414 3.32167 17.7906 6.20949C20.6784 6.55867 22.9161 9.01804 22.9161 12.0001C22.9161 14.9821 20.6784 17.4414 17.7906 17.7906C17.4414 20.6784 14.9821 22.9161 12.0001 22.9161C9.01804 22.9161 6.55867 20.6784 6.20949 17.7906C3.32167 17.4414 1.08398 14.9821 1.08398 12.0001C1.08398 9.01804 3.32167 6.55867 6.20949 6.20949C6.55867 3.32167 9.01804 1.08398 12.0001 1.08398ZM14.2197 12.0001C13.2928 12.5233 12.5233 13.2928 12 14.2197C11.4768 13.2928 10.7073 12.5233 9.78041 12.0001C10.7073 11.4768 11.4768 10.7073 12 9.78042C12.5233 10.7073 13.2928 11.4768 14.2197 12.0001Z" fill="white"/>
</svg>
