<svg width="24" height="24" viewBox="0 0 24 24" fill="none" xmlns="http://www.w3.org/2000/svg">
<path d="M6.048 19.5093L4.49067 17.9307L10.4 11.9787L4.448 6.00533L6.02667 4.40533L12 10.3573L17.9947 4.42667L19.5947 5.984L13.6 11.9787L19.5093 17.9733L17.952 19.552L12 13.5787L6.048 19.5093ZM5.64267 13.6C5.20178 13.6 4.81778 13.4791 4.49067 13.2373C4.16356 12.9956 4 12.5831 4 12C4 11.4169 4.16356 11.0044 4.49067 10.7627C4.81778 10.5067 5.20178 10.3787 5.64267 10.3787C6.09778 10.3787 6.48889 10.5067 6.816 10.7627C7.14311 11.0044 7.30667 11.4169 7.30667 12C7.30667 12.5831 7.14311 12.9956 6.816 13.2373C6.48889 13.4791 6.09778 13.6 5.64267 13.6ZM12 20C11.616 20 11.3031 19.9218 11.0613 19.7653C10.8338 19.6231 10.6631 19.424 10.5493 19.168C10.4498 18.912 10.4 18.6347 10.4 18.336C10.4 18.0373 10.4498 17.7671 10.5493 17.5253C10.6631 17.2693 10.8338 17.0702 11.0613 16.928C11.3031 16.7716 11.616 16.6933 12 16.6933C12.384 16.6933 12.6969 16.7716 12.9387 16.928C13.1804 17.0702 13.3511 17.2693 13.4507 17.5253C13.5644 17.7671 13.6213 18.0373 13.6213 18.336C13.6213 18.6347 13.5644 18.912 13.4507 19.168C13.3511 19.424 13.1804 19.6231 12.9387 19.7653C12.6969 19.9218 12.384 20 12 20ZM12 7.30667C11.616 7.30667 11.3031 7.23556 11.0613 7.09333C10.8338 6.93689 10.6631 6.73067 10.5493 6.47467C10.4498 6.21867 10.4 5.94133 10.4 5.64267C10.4 5.344 10.4498 5.07378 10.5493 4.832C10.6631 4.576 10.8338 4.37689 11.0613 4.23467C11.3031 4.07822 11.616 4 12 4C12.384 4 12.6969 4.07822 12.9387 4.23467C13.1804 4.37689 13.3511 4.576 13.4507 4.832C13.5644 5.07378 13.6213 5.344 13.6213 5.64267C13.6213 5.94133 13.5644 6.21867 13.4507 6.47467C13.3511 6.73067 13.1804 6.93689 12.9387 7.09333C12.6969 7.23556 12.384 7.30667 12 7.30667ZM18.336 13.6C17.8951 13.6 17.5111 13.4791 17.184 13.2373C16.8569 12.9956 16.6933 12.5831 16.6933 12C16.6933 11.4169 16.8569 11.0044 17.184 10.7627C17.5111 10.5067 17.8951 10.3787 18.336 10.3787C18.7911 10.3787 19.1822 10.5067 19.5093 10.7627C19.8364 11.0044 20 11.4169 20 12C20 12.5831 19.8364 12.9956 19.5093 13.2373C19.1822 13.4791 18.7911 13.6 18.336 13.6Z" fill="white"/>
</svg>
