<svg width="175" height="49" viewBox="0 0 175 49" fill="none" xmlns="http://www.w3.org/2000/svg">
<path d="M171.817 34.8738V22.2517C171.817 20.8584 171.853 19.5201 171.927 18.2368C171.487 19.8317 171.092 21.0784 170.744 21.9767L165.877 34.8738H164.062L159.112 21.9767L158.369 19.6942L157.929 18.2368L157.957 19.7217L158.012 22.2517V34.8738H155.729V15.9543H159.112L164.144 29.0715C164.309 29.6031 164.474 30.1714 164.639 30.7764C164.804 31.3814 164.914 31.8122 164.969 32.0689C165.043 31.7206 165.189 31.1798 165.409 30.4464C165.648 29.7131 165.813 29.2548 165.904 29.0715L170.827 15.9543H174.126V34.8738H171.817Z" fill="white"/>
<path d="M145.637 34.8738H142.997L135.27 15.9543H137.965L143.217 29.264L144.345 32.6189L145.472 29.264L150.669 15.9543H153.364L145.637 34.8738Z" fill="white"/>
<path d="M133.987 27.5869C133.987 30.1351 133.428 32.0326 132.309 33.2792C131.191 34.5258 129.569 35.1492 127.442 35.1492C125.315 35.1492 123.711 34.5075 122.63 33.2242C121.548 31.9226 121.007 30.0435 121.007 27.5869C121.007 22.582 123.18 20.0796 127.524 20.0796C129.743 20.0796 131.374 20.6937 132.419 21.922C133.464 23.132 133.987 25.0203 133.987 27.5869ZM131.457 27.5869C131.457 25.5886 131.154 24.1403 130.549 23.242C129.963 22.3254 128.964 21.867 127.552 21.867C126.14 21.867 125.114 22.3345 124.472 23.2695C123.849 24.1861 123.537 25.6253 123.537 27.5869C123.537 29.5118 123.849 30.9601 124.472 31.9318C125.095 32.8851 126.076 33.3617 127.414 33.3617C128.863 33.3617 129.898 32.8942 130.522 31.9593C131.145 31.0243 131.457 29.5668 131.457 27.5869Z" fill="white"/>
<path d="M119.677 34.7636C118.889 34.9836 118.082 35.0936 117.257 35.0936C115.314 35.0936 114.342 33.9937 114.342 31.7937V22.114H112.665V20.354H114.425L115.14 17.1091H116.762V20.354H119.457V22.114H116.762V31.2712C116.762 31.9679 116.872 32.4629 117.092 32.7562C117.331 33.0312 117.734 33.1687 118.302 33.1687C118.614 33.1687 119.072 33.1045 119.677 32.9762V34.7636Z" fill="white"/>
<path d="M102.527 35.1492C101.06 35.1492 99.9605 34.7642 99.2272 33.9942C98.4939 33.2242 98.1272 32.1701 98.1272 30.8318C98.1272 29.3285 98.6222 28.1735 99.6122 27.3669C100.602 26.5602 102.197 26.1294 104.397 26.0744L107.669 26.0194V25.2219C107.669 24.0303 107.413 23.187 106.899 22.692C106.404 22.1787 105.616 21.922 104.535 21.922C103.453 21.922 102.665 22.1054 102.17 22.472C101.693 22.8387 101.4 23.4253 101.29 24.232L98.7597 23.9845C99.1813 21.3812 101.125 20.0796 104.59 20.0796C106.423 20.0796 107.798 20.5012 108.714 21.3446C109.649 22.1695 110.117 23.3795 110.117 24.9745V31.2168C110.117 31.9318 110.209 32.4726 110.392 32.8392C110.575 33.2059 110.933 33.3892 111.464 33.3892C111.703 33.3892 111.968 33.3525 112.262 33.2792V34.7917C111.638 34.9383 111.015 35.0117 110.392 35.0117C109.494 35.0117 108.843 34.7825 108.439 34.3242C108.036 33.8475 107.807 33.1051 107.752 32.0967H107.669C107.046 33.1967 106.322 33.985 105.497 34.4617C104.69 34.92 103.7 35.1492 102.527 35.1492ZM103.077 33.3342C103.957 33.3342 104.736 33.1326 105.414 32.7292C106.111 32.3259 106.661 31.7759 107.064 31.0793C107.468 30.3643 107.669 29.6402 107.669 28.9068V27.6969L105.002 27.7519C103.865 27.7702 103.004 27.8894 102.417 28.1094C101.849 28.3294 101.4 28.6593 101.07 29.0993C100.758 29.5393 100.602 30.126 100.602 30.8593C100.602 31.6476 100.813 32.2617 101.235 32.7017C101.675 33.1234 102.289 33.3342 103.077 33.3342Z" fill="white"/>
<path d="M89.7124 34.8742V23.737C89.7124 22.7103 89.6849 21.5829 89.6299 20.3546H91.9123C91.9856 22.0045 92.0223 22.9945 92.0223 23.3245H92.0773C92.4623 22.0779 92.9023 21.2254 93.3973 20.7671C93.9106 20.3088 94.6164 20.0796 95.5147 20.0796C95.8447 20.0796 96.1747 20.1254 96.5047 20.2171V22.417C96.1747 22.3254 95.7439 22.2795 95.2122 22.2795C94.2039 22.2795 93.4339 22.7195 92.9023 23.5995C92.389 24.4611 92.1323 25.6986 92.1323 27.3119V34.8742H89.7124Z" fill="white"/>
<path d="M87.6134 34.7636C86.8251 34.9836 86.0184 35.0936 85.1934 35.0936C83.2502 35.0936 82.2785 33.9937 82.2785 31.7937V22.114H80.6011V20.354H82.361L83.076 17.1091H84.6985V20.354H87.3934V22.114H84.6985V31.2712C84.6985 31.9679 84.8085 32.4629 85.0284 32.7562C85.2668 33.0312 85.6701 33.1687 86.2384 33.1687C86.5501 33.1687 87.0084 33.1045 87.6134 32.9762V34.7636Z" fill="white"/>
<path d="M78.9504 29.6488C78.9504 31.3904 78.2629 32.7471 76.8879 33.7187C75.5313 34.672 73.6155 35.1487 71.1406 35.1487C66.5207 35.1487 63.8442 33.5445 63.1108 30.3363L65.5858 29.8413C65.8791 30.9779 66.4932 31.8121 67.4282 32.3437C68.3632 32.8754 69.6282 33.1412 71.2231 33.1412C72.8731 33.1412 74.1472 32.857 75.0455 32.2887C75.9438 31.7204 76.393 30.8863 76.393 29.7863C76.393 29.163 76.2555 28.6588 75.9805 28.2738C75.7055 27.8889 75.3113 27.5772 74.798 27.3389C74.2847 27.0822 73.6705 26.8714 72.9556 26.7064C72.2589 26.5231 71.4798 26.3397 70.6181 26.1564C69.1148 25.8264 67.9782 25.4964 67.2082 25.1664C66.4382 24.8181 65.8241 24.4423 65.3658 24.039C64.9258 23.6356 64.5866 23.159 64.3483 22.609C64.11 22.059 63.9908 21.4357 63.9908 20.7391C63.9908 19.1074 64.605 17.8608 65.8333 16.9992C67.0799 16.1192 68.8582 15.6792 71.1681 15.6792C73.3314 15.6792 74.9813 16.0092 76.118 16.6692C77.2546 17.3292 78.0521 18.4475 78.5104 20.0241L75.9805 20.4641C75.7055 19.4558 75.1738 18.7316 74.3855 18.2916C73.6155 17.8333 72.5339 17.6041 71.1406 17.6041C69.6373 17.6041 68.4824 17.8608 67.6757 18.3741C66.8874 18.8691 66.4932 19.6116 66.4932 20.6016C66.4932 21.1882 66.6491 21.674 66.9607 22.059C67.2724 22.4257 67.7124 22.7465 68.2807 23.0215C68.8673 23.2782 70.0315 23.599 71.7731 23.984C72.3597 24.1123 72.9372 24.2498 73.5055 24.3965C74.0922 24.5248 74.6422 24.6898 75.1555 24.8914C75.6871 25.0748 76.1821 25.3039 76.6405 25.5789C77.1171 25.8356 77.5204 26.1564 77.8504 26.5414C78.1987 26.908 78.4646 27.348 78.6479 27.8614C78.8496 28.3563 78.9504 28.9522 78.9504 29.6488Z" fill="white"/>
<path d="M28.9085 48.5704C42.4324 48.5704 53.3958 37.6982 53.3958 24.2866C53.3958 10.8751 42.4324 0.00292969 28.9085 0.00292969C15.3845 0.00292969 4.42114 10.8751 4.42114 24.2866C4.42114 37.6982 15.3845 48.5704 28.9085 48.5704Z" fill="#E3923B"/>
<path d="M44.655 5.69077H36.0195C35.7488 5.69077 35.5317 5.47311 35.5317 5.20708C35.5317 4.93863 35.7488 4.72339 36.0195 4.72339H43.421C43.8454 5.03053 44.2551 5.35219 44.655 5.69077Z" fill="#13161F"/>
<path d="M49.5233 11.1683H41.2487C40.978 11.1683 40.761 10.9531 40.761 10.6846C40.761 10.4186 40.978 10.2009 41.2487 10.2009H48.8649C49.0893 10.5177 49.3112 10.8394 49.5233 11.1683Z" fill="#13161F"/>
<path d="M52.1618 16.6463H43.9311C43.6628 16.6463 43.4434 16.4311 43.4434 16.1626C43.4434 15.8966 43.6628 15.679 43.9311 15.679H51.8155C51.9375 16.0006 52.0545 16.3223 52.1618 16.6463Z" fill="#13161F"/>
<path d="M53.3017 22.1263H45.2709C45.0003 22.1263 44.7832 21.9111 44.7832 21.6426C44.7832 21.3766 45.0003 21.1589 45.2709 21.1589H53.1968C53.2407 21.483 53.2749 21.8047 53.3017 22.1263Z" fill="#13161F"/>
<path d="M53.2829 26.6416C53.2512 26.9657 53.2146 27.2873 53.1683 27.6065H45.5058C45.2351 27.6065 45.0181 27.3889 45.0181 27.1229C45.0181 26.8568 45.2351 26.6392 45.5058 26.6392H53.2829V26.6416Z" fill="#13161F"/>
<path d="M52.0935 32.122C51.9838 32.4485 51.8643 32.7678 51.7375 33.087H43.9287C43.6604 33.087 43.4409 32.8694 43.4409 32.6033C43.4409 32.3349 43.6604 32.1196 43.9287 32.1196H52.0935V32.122Z" fill="#13161F"/>
<path d="M49.392 37.602C49.1749 37.9309 48.9506 38.2502 48.7189 38.567H41.3247C41.0564 38.567 40.8369 38.3493 40.8369 38.0833C40.8369 37.8149 41.0564 37.5996 41.3247 37.5996H49.392V37.602Z" fill="#13161F"/>
<path d="M44.4133 43.0825C44.0011 43.4211 43.5792 43.7403 43.1451 44.0475H35.9484C35.6802 44.0475 35.4607 43.8298 35.4607 43.5638C35.4607 43.2953 35.6802 43.0801 35.9484 43.0801H44.4133V43.0825Z" fill="#13161F"/>
<path d="M3.41422 11.9085C1.24619 15.5337 0 19.7636 0 24.2837C0 37.6965 10.9645 48.5674 24.4873 48.5674C38.0101 48.5674 48.977 37.6965 48.977 24.2861C48.977 10.8758 38.0125 0 24.4873 0C20.0781 0 15.942 1.15602 12.3692 3.17785" fill="#13161F"/>
<path d="M48.4648 24.3613C48.4648 37.6772 37.6702 48.4719 24.3542 48.4719C11.0383 48.4719 0.243652 37.6772 0.243652 24.3613C0.243652 11.0454 11.0383 0.250732 24.3542 0.250732C37.6702 0.250732 48.4648 11.0454 48.4648 24.3613Z" fill="#E3923B"/>
<path fill-rule="evenodd" clip-rule="evenodd" d="M24.3542 47.9719C37.394 47.9719 47.9649 37.4011 47.9649 24.3613C47.9649 11.3215 37.394 0.750718 24.3542 0.750718C11.3145 0.750718 0.743638 11.3215 0.743638 24.3613C0.743638 37.4011 11.3145 47.9719 24.3542 47.9719ZM24.3542 48.4719C37.6702 48.4719 48.4648 37.6772 48.4648 24.3613C48.4648 11.0454 37.6702 0.250732 24.3542 0.250732C11.0383 0.250732 0.243652 11.0454 0.243652 24.3613C0.243652 37.6772 11.0383 48.4719 24.3542 48.4719Z" fill="#13161F"/>
<path d="M22.0393 33.4078H27.8026C29.8174 33.4078 30.8248 32.42 30.8248 30.4444V28.1783C30.8248 26.2027 29.7471 25.2149 27.5918 25.2149H22.0393C21.8051 25.2149 21.6879 25.3195 21.6879 25.5287V33.0591C21.6879 33.2915 21.8051 33.4078 22.0393 33.4078ZM22.0393 23.0883H27.4512C29.5129 23.0883 30.5437 22.1005 30.5437 20.1249V18.2772C30.5437 16.3016 29.548 15.3138 27.5566 15.3138H22.0393C21.8051 15.3138 21.6879 15.4301 21.6879 15.6625V22.7745C21.6879 22.9837 21.8051 23.0883 22.0393 23.0883ZM19.1226 35.0812V13.6404C19.1226 13.315 19.2866 13.1523 19.6145 13.1523H27.8729C29.4894 13.1523 30.7545 13.6056 31.6682 14.512C32.5819 15.3952 33.0388 16.6386 33.0388 18.2423V20.1598C33.0388 22.2283 32.0548 23.5648 30.0869 24.1691C30.9771 24.2388 31.7385 24.6339 32.3711 25.3544C33.0036 26.0517 33.3199 26.9813 33.3199 28.1434V30.4793C33.3199 32.083 32.8514 33.338 31.9142 34.2445C31.0005 35.1277 29.7354 35.5693 28.1189 35.5693H19.6145C19.2866 35.5693 19.1226 35.4066 19.1226 35.0812Z" fill="#13161F"/>
<path d="M11.6509 23.1541C11.6509 23.1195 11.6789 23.0916 11.7134 23.0916H23.6065V25.2267H11.7134C11.6789 25.2267 11.6509 25.1988 11.6509 25.1642V23.1541Z" fill="#13161F"/>
</svg>
